# xmcd
#
# Track frame offsets:
#	150
#	11922
#	24887
#	37582
#	54267
#	68668
#	78988
#	92191
#	103845
#	116876
#	129032
#	140601
#
# Disc length: 1975 seconds
#
# Revision: 1
# Processed by: cddbd v1.4PL0 Copyright (c) Steve Scherf et al.
# Submitted via: audiograbber 1.81.01
#
DISCID=9007b50c
DTITLE=Rocky Roberts - I Grandi Successi Originali cd2
DYEAR=1900
DGENRE=Pop
TTITLE0=Sono tremendo
TTITLE1=Bella pupa
TTITLE2=Black is black
TTITLE3=Don't play that song
TTITLE4=Dove credi di andare
TTITLE5=E lasciami stare
TTITLE6=Ciao, ciao, ciao (Chain of fool)
TTITLE7=Appassionatamente
TTITLE8=Accidenti
TTITLE9=Gimme some lovin'
TTITLE10=Depending on you
TTITLE11=Too much
EXTD=
EXTT0=
EXTT1=
EXTT2=
EXTT3=
EXTT4=
EXTT5=
EXTT6=
EXTT7=
EXTT8=
EXTT9=
EXTT10=
EXTT11=
PLAYORDER=
